<svg width="43" height="20" viewBox="0 0 43 20" fill="none" xmlns="http://www.w3.org/2000/svg">
<path d="M5 7.5L10 12.5L15 7.5" stroke="white" stroke-linecap="round" stroke-linejoin="round"/>
<path d="M41.3332 9.23333V10C41.3321 11.797 40.7503 13.5456 39.6743 14.9849C38.5983 16.4241 37.0859 17.4771 35.3626 17.9866C33.6394 18.4961 31.7976 18.4349 30.1119 17.8122C28.4262 17.1894 26.987 16.0384 26.009 14.5309C25.0309 13.0234 24.5663 11.2401 24.6846 9.44693C24.8028 7.6538 25.4975 5.94694 26.6651 4.58089C27.8326 3.21485 29.4105 2.26282 31.1633 1.86679C32.9162 1.47076 34.7501 1.65195 36.3915 2.38333" stroke="#42AD4C" stroke-linecap="round" stroke-linejoin="round"/>
<path d="M41.3333 3.33333L33 11.675L30.5 9.175" stroke="#42AD4C" stroke-linecap="round" stroke-linejoin="round"/>
</svg>
